<?xml version="1.0" encoding="UTF-8"?>
<svg width="134px" height="154px" viewBox="0 0 134 154" version="1.1" xmlns="http://www.w3.org/2000/svg" xmlns:xlink="http://www.w3.org/1999/xlink">
    <title>blendoor symbol/blue</title>
    <defs>
        <path d="M25.973,0.75 C11.6,0.941 0.008,12.639 0,27.052 L0,27.052 L0,126.683 C0.008,141.221 11.794,153 26.33,153 L26.33,153 L75.917,153 C75.917,153 51.416,151.797 51.416,127.005 L51.416,127.005 C51.416,88.668 51.41,25.753 51.41,25.753 L51.41,25.753 C51.41,11.729 39.952,0.941 25.973,0.75 Z" id="path-1"></path>
        <linearGradient x1="94.2088463%" y1="-5.53888926%" x2="27.9833241%" y2="113.626886%" id="linearGradient-3">
            <stop stop-color="#002A45" offset="0%"></stop>
            <stop stop-color="#064C69" stop-opacity="0.890644115" offset="59.4240713%"></stop>
            <stop stop-color="#0C6EA0" stop-opacity="0.392351676" offset="100%"></stop>
        </linearGradient>
        <path d="M25.41,25.753 C25.41,25.753 25.416,91.496 25.416,129.835 L25.416,129.835 C26.277,142.679 36.887,152.843 49.917,152.992 L49.917,152.992 L49.917,153 L66.119,153 C89.717,153 108.842,133.872 108.842,110.277 L108.842,110.277 C108.842,86.054 88.538,64.152 63.06,65.96 L63.06,65.96 C78.026,62.836 89.274,49.604 89.274,33.751 L89.274,33.751 C89.274,15.578 74.495,0.842 56.265,0.84 L56.265,0.84 C56.265,0.84 0.144,0.756 0.052,0.756 L0.052,0.756 C13.996,0.982 25.41,11.757 25.41,25.753" id="path-4"></path>
        <linearGradient x1="-2.3204286%" y1="108.439327%" x2="89.0385156%" y2="0%" id="linearGradient-6">
            <stop stop-color="#002A45" offset="0%"></stop>
            <stop stop-color="#0C6EA0" offset="100%"></stop>
        </linearGradient>
    </defs>
    <g id="Symbols" stroke="none" stroke-width="1" fill="none" fill-rule="evenodd">
        <g id="blendoor-symbol/blue">
            <g id="Group-6" transform="translate(0.000000, 0.250000)">
                <mask id="mask-2" fill="white">
                    <use xlink:href="#path-1"></use>
                </mask>
                <g id="Clip-5"></g>
                <path d="M25.973,0.75 C11.6,0.941 0.008,12.639 0,27.052 L0,27.052 L0,126.683 C0.008,141.221 11.794,153 26.33,153 L26.33,153 L75.917,153 C75.917,153 51.416,151.797 51.416,127.005 L51.416,127.005 C51.416,88.668 51.41,25.753 51.41,25.753 L51.41,25.753 C51.41,11.729 39.952,0.941 25.973,0.75 Z" id="Fill-4" fill="url(#linearGradient-3)" mask="url(#mask-2)"></path>
            </g>
            <g id="Group-21" transform="translate(25.000000, 0.250000)">
                <mask id="mask-5" fill="white">
                    <use xlink:href="#path-4"></use>
                </mask>
                <g id="Clip-20"></g>
                <path d="M25.41,25.753 C25.41,25.753 25.416,91.496 25.416,129.835 C26.277,142.679 36.887,152.843 49.917,152.992 L66.119,153 C89.717,153 108.842,133.872 108.842,110.277 C108.842,86.054 88.538,64.152 63.06,65.96 C78.026,62.836 89.274,49.604 89.274,33.751 C89.274,15.578 74.495,0.842 56.265,0.84 C56.265,0.84 0.144,0.756 0.052,0.756 C13.996,0.982 25.41,11.757 25.41,25.753 L139,-4.25" id="Fill-19" fill="url(#linearGradient-6)" mask="url(#mask-5)"></path>
            </g>
        </g>
    </g>
</svg>