<svg version="1.1" id="Layer_1" xmlns="http://www.w3.org/2000/svg" xmlns:xlink="http://www.w3.org/1999/xlink" x="0px" y="0px"
	 width="100%" viewBox="0 0 268 306" enable-background="new 0 0 268 306" xml:space="preserve">
<path fill="#000000" opacity="1.000000" stroke="none" 
	d="
M178.000000,0.999998 
	C208.288147,1.000000 238.576294,1.000000 269.000000,1.000000 
	C269.000000,68.354172 269.000000,135.708420 268.607208,203.550995 
	C267.847076,203.535034 267.249390,203.073883 267.145813,202.520279 
	C263.799347,184.635574 255.335770,169.272202 242.783340,156.458252 
	C231.301682,144.737350 217.412033,136.498947 201.105057,133.044769 
	C195.789932,131.918915 190.376404,131.257477 186.113617,130.563614 
	C191.674728,127.015457 197.858261,123.070152 204.383026,119.052460 
	C209.200195,114.187294 213.676117,109.394516 218.451996,104.393890 
	C224.545303,95.302612 228.638519,85.814552 229.418350,74.742630 
	C229.487305,68.849236 229.499832,63.231140 228.975769,57.663555 
	C227.533249,42.338291 220.028717,29.772827 209.483337,19.240303 
	C201.399994,11.166790 191.341141,5.748497 180.069031,2.928171 
	C179.268661,2.727914 178.684631,1.662908 178.000000,0.999998 
z"/>
<path fill="#064E76" opacity="1.000000" stroke="none" 
	d="
M269.000000,211.000000 
	C269.000000,219.354233 269.000000,227.708466 268.620667,236.502777 
	C267.196136,239.646484 266.150879,242.350082 264.834045,244.847763 
	C258.980438,239.200287 253.437469,233.717957 247.808853,228.325012 
	C232.447495,213.606735 217.046646,198.929688 201.668137,184.229294 
	C193.018646,175.961166 184.404343,167.656128 175.735657,159.408218 
	C158.282379,142.802124 140.874466,126.147217 123.298088,109.672195 
	C116.420212,103.225281 109.139847,97.207779 102.039246,90.526398 
	C102.007118,81.369659 101.978516,72.681252 101.958443,63.539215 
	C102.002045,60.050819 102.037117,57.016045 102.387833,54.113670 
	C105.353630,56.217506 108.236519,57.943249 110.617485,60.198826 
	C131.723618,80.193436 152.765686,100.255997 173.748047,120.380493 
	C175.990677,122.531433 177.677185,125.252426 179.722214,127.622215 
	C181.396332,129.562180 183.100296,131.508789 185.014954,133.198776 
	C186.615631,134.611633 188.746155,135.439468 190.290619,136.898392 
	C210.349792,155.846512 230.324966,174.883545 250.371063,193.845581 
	C256.502991,199.645874 262.786133,205.286331 269.000000,211.000000 
z"/>
<path fill="#064966" opacity="1.000000" stroke="none" 
	d="
M0.999999,85.000000 
	C1.000000,70.312439 1.000000,55.624878 1.372439,40.462246 
	C3.456876,36.312126 5.168875,32.637077 7.062149,29.265430 
	C8.645603,32.006962 9.693846,34.753597 11.506866,36.833626 
	C24.165060,51.356045 36.898453,65.815094 49.769432,80.149284 
	C64.196785,96.216766 78.862938,112.070091 93.254509,128.169174 
	C95.823608,131.043091 98.395592,132.153015 101.993561,131.424576 
	C102.000053,133.567108 102.003777,135.280975 102.006393,137.463821 
	C102.004883,149.623291 102.004471,161.313782 102.003723,173.472229 
	C101.998703,180.296280 101.994011,186.652359 101.679176,192.872070 
	C95.983154,187.581238 90.282669,182.713104 85.276680,177.212875 
	C74.759750,165.657669 64.708336,153.680206 54.282093,142.040665 
	C38.656708,124.596962 22.902184,107.268448 7.116373,89.969612 
	C5.365209,88.050606 3.052355,86.644165 0.999999,85.000000 
z"/>
<path fill="#044062" opacity="1.000000" stroke="none" 
	d="
M192.000000,307.000000 
	C177.979111,307.000000 163.958206,307.000000 149.136063,306.867279 
	C146.198334,305.938232 144.012238,305.253052 141.934372,304.325439 
	C134.738052,301.112640 127.069489,298.587952 120.572296,294.299164 
	C115.629578,291.036469 112.193260,285.491730 107.969971,280.615173 
	C103.411491,270.661438 101.222656,260.612427 101.920456,249.530304 
	C101.940689,240.708786 101.949890,232.355743 101.965561,223.533920 
	C101.987206,214.713821 102.002388,206.362503 102.360023,198.091675 
	C104.536293,199.270813 106.642830,200.080078 108.162346,201.512207 
	C126.451408,218.749313 144.677658,236.053360 162.870743,253.391953 
	C176.969620,266.828674 190.953400,280.386566 205.100525,293.771973 
	C207.653900,296.187866 209.016312,298.653503 207.775482,302.394165 
	C203.128738,303.463287 198.742065,304.191254 194.403885,305.140900 
	C193.509781,305.336639 192.796585,306.358765 192.000000,307.000000 
z"/>
<path fill="#054663" opacity="1.000000" stroke="none" 
	d="
M101.990799,130.995911 
	C98.395592,132.153015 95.823608,131.043091 93.254509,128.169174 
	C78.862938,112.070091 64.196785,96.216766 49.769432,80.149284 
	C36.898453,65.815094 24.165060,51.356045 11.506866,36.833626 
	C9.693846,34.753597 8.645603,32.006962 7.223698,28.957253 
	C13.887661,15.981515 24.133804,7.867467 37.207092,3.067607 
	C38.250458,2.684535 39.074196,1.703273 40.000000,1.000000 
	C41.714359,1.000000 43.428715,1.000000 45.465012,1.305126 
	C46.050125,3.745291 45.522709,6.574750 46.695927,7.910451 
	C62.466228,25.864874 78.394707,43.683426 94.547035,61.294388 
	C96.122505,63.012138 99.440666,63.131523 101.949913,63.992836 
	C101.978516,72.681252 102.007118,81.369659 102.030060,90.995346 
	C102.022476,99.954910 102.020546,107.977203 102.014000,116.465569 
	C102.003189,121.619728 101.996994,126.307816 101.990799,130.995911 
z"/>
<path fill="#07527B" opacity="1.000000" stroke="none" 
	d="
M269.000000,210.562500 
	C262.786133,205.286331 256.502991,199.645874 250.371063,193.845581 
	C230.324966,174.883545 210.349792,155.846512 190.290619,136.898392 
	C188.746155,135.439468 186.615631,134.611633 185.014954,133.198776 
	C183.100296,131.508789 181.396332,129.562180 179.722214,127.622215 
	C177.677185,125.252426 175.990677,122.531433 173.748047,120.380493 
	C152.765686,100.255997 131.723618,80.193436 110.617485,60.198826 
	C108.236519,57.943249 105.353630,56.217506 102.375198,53.661716 
	C101.875076,30.671587 91.750458,14.566497 71.306892,5.313709 
	C66.808601,3.277776 61.782856,2.407212 57.000000,1.000000 
	C65.687561,1.000000 74.375130,1.000000 83.716690,1.274077 
	C88.507034,5.144732 92.794189,8.583290 96.755089,12.363688 
	C121.302345,35.792328 145.755463,59.319572 170.284821,82.767021 
	C180.142578,92.190002 190.244156,101.362709 199.929688,110.957283 
	C201.982712,112.991020 202.705902,116.367188 204.041809,119.124847 
	C197.858261,123.070152 191.674728,127.015457 186.113617,130.563614 
	C190.376404,131.257477 195.789932,131.918915 201.105057,133.044769 
	C217.412033,136.498947 231.301682,144.737350 242.783340,156.458252 
	C255.335770,169.272202 263.799347,184.635574 267.145813,202.520279 
	C267.249390,203.073883 267.847076,203.535034 268.607208,204.019653 
	C269.000000,206.041672 269.000000,208.083328 269.000000,210.562500 
z"/>
<path fill="#085679" opacity="1.000000" stroke="none" 
	d="
M108.086723,280.962311 
	C112.193260,285.491730 115.629578,291.036469 120.572296,294.299164 
	C127.069489,298.587952 134.738052,301.112640 141.934372,304.325439 
	C144.012238,305.253052 146.198334,305.938232 148.667404,306.867279 
	C145.307098,307.000000 141.614182,307.000000 137.139282,306.809937 
	C133.994705,306.089905 131.639374,305.142639 129.268326,305.101532 
	C118.519974,304.915192 107.767197,304.984528 96.930969,304.620178 
	C95.858055,302.566345 95.122849,300.631744 93.842323,299.177216 
	C83.630562,287.577820 73.345291,276.042572 63.024727,264.539551 
	C48.727325,248.604050 34.490211,232.611984 20.000435,216.852707 
	C13.967981,210.291687 7.351122,204.268021 1.000001,198.000000 
	C1.000000,187.645767 1.000000,177.291550 1.344247,166.551178 
	C3.905476,167.829193 6.459664,169.188232 8.285760,171.206131 
	C22.101307,186.472931 35.799164,201.846603 49.484333,217.230881 
	C63.516685,233.005447 77.389771,248.923172 91.547974,264.583466 
	C96.743431,270.330109 102.555786,275.518982 108.086723,280.962311 
z"/>
<path fill="#085680" opacity="1.000000" stroke="none" 
	d="
M204.383041,119.052460 
	C202.705902,116.367188 201.982712,112.991020 199.929688,110.957283 
	C190.244156,101.362709 180.142578,92.190002 170.284821,82.767021 
	C145.755463,59.319572 121.302345,35.792328 96.755089,12.363688 
	C92.794189,8.583290 88.507034,5.144732 84.185349,1.274077 
	C94.020897,1.000000 104.041786,1.000000 114.709854,1.279825 
	C128.505493,14.020008 141.662827,26.471060 154.800400,38.942905 
	C174.215271,57.373962 193.720306,75.712776 212.900177,94.385414 
	C215.501053,96.917503 216.442322,101.154282 218.152039,104.601746 
	C213.676117,109.394516 209.200195,114.187294 204.383041,119.052460 
z"/>
<path fill="#085984" opacity="1.000000" stroke="none" 
	d="
M218.451996,104.393890 
	C216.442322,101.154282 215.501053,96.917503 212.900177,94.385414 
	C193.720306,75.712776 174.215271,57.373962 154.800400,38.942905 
	C141.662827,26.471060 128.505493,14.020008 115.178513,1.279825 
	C126.687561,1.000000 138.375122,1.000000 150.717255,1.273911 
	C155.231430,4.928296 159.226273,8.167715 162.926300,11.714643 
	C176.109299,24.352110 189.149429,37.138573 202.327652,49.781067 
	C211.184113,58.277500 220.182312,66.626190 229.117096,75.040977 
	C228.638519,85.814552 224.545303,95.302612 218.451996,104.393890 
z"/>
<path fill="#074D6B" opacity="1.000000" stroke="none" 
	d="
M102.017563,198.011185 
	C102.002388,206.362503 101.987206,214.713821 101.673950,223.376678 
	C100.622040,223.046616 99.776360,222.486053 99.127960,221.751389 
	C86.497925,207.440918 73.941925,193.064835 61.266335,178.794937 
	C45.275909,160.793335 29.270184,142.803802 13.087990,124.975220 
	C9.447262,120.964096 5.049344,117.640244 1.000000,114.000000 
	C1.000000,104.645775 1.000000,95.291542 0.999999,85.468658 
	C3.052355,86.644165 5.365209,88.050606 7.116373,89.969612 
	C22.902184,107.268448 38.656708,124.596962 54.282093,142.040665 
	C64.708336,153.680206 74.759750,165.657669 85.276680,177.212875 
	C90.282669,182.713104 95.983154,187.581238 101.680595,193.288391 
	C102.000626,195.231125 102.009094,196.621155 102.017563,198.011185 
z"/>
<path fill="#09597E" opacity="1.000000" stroke="none" 
	d="
M1.000001,198.468658 
	C7.351122,204.268021 13.967981,210.291687 20.000435,216.852707 
	C34.490211,232.611984 48.727325,248.604050 63.024727,264.539551 
	C73.345291,276.042572 83.630562,287.577820 93.842323,299.177216 
	C95.122849,300.631744 95.858055,302.566345 96.460571,304.627441 
	C88.744644,304.970520 81.390579,305.300537 74.095245,304.790558 
	C71.246086,304.591461 67.945206,303.119446 65.870117,301.151550 
	C61.190487,296.713654 57.131618,291.618561 52.847519,286.766693 
	C39.527599,271.681519 26.319986,256.495270 12.840708,241.553970 
	C9.320050,237.651443 4.969440,234.497650 1.000002,231.000000 
	C1.000000,220.312439 1.000000,209.624878 1.000001,198.468658 
z"/>
<path fill="#075070" opacity="1.000000" stroke="none" 
	d="
M1.000000,114.468658 
	C5.049344,117.640244 9.447262,120.964096 13.087990,124.975220 
	C29.270184,142.803802 45.275909,160.793335 61.266335,178.794937 
	C73.941925,193.064835 86.497925,207.440918 99.127960,221.751389 
	C99.776360,222.486053 100.622040,223.046616 101.667488,223.845459 
	C101.949890,232.355743 101.940689,240.708786 101.633408,249.374710 
	C98.860344,247.015701 96.364891,244.362427 93.913673,241.668915 
	C78.017662,224.201447 62.083897,206.767975 46.256470,189.238525 
	C33.214161,174.793671 20.344635,160.192688 7.279777,145.768463 
	C5.545544,143.853775 3.110494,142.573883 1.000000,141.000000 
	C1.000000,132.312439 1.000000,123.624870 1.000000,114.468658 
z"/>
<path fill="#085374" opacity="1.000000" stroke="none" 
	d="
M1.000000,141.468643 
	C3.110494,142.573883 5.545544,143.853775 7.279777,145.768463 
	C20.344635,160.192688 33.214161,174.793671 46.256470,189.238525 
	C62.083897,206.767975 78.017662,224.201447 93.913673,241.668915 
	C96.364891,244.362427 98.860344,247.015701 101.622391,249.843170 
	C101.222656,260.612427 103.411491,270.661438 107.969971,280.615173 
	C102.555786,275.518982 96.743431,270.330109 91.547974,264.583466 
	C77.389771,248.923172 63.516685,233.005447 49.484333,217.230881 
	C35.799164,201.846603 22.101307,186.472931 8.285760,171.206131 
	C6.459664,169.188232 3.905476,167.829193 1.344247,166.082520 
	C1.000000,157.979095 1.000000,149.958191 1.000000,141.468643 
z"/>
<path fill="#095D84" opacity="1.000000" stroke="none" 
	d="
M1.000002,231.468658 
	C4.969440,234.497650 9.320050,237.651443 12.840708,241.553970 
	C26.319986,256.495270 39.527599,271.681519 52.847519,286.766693 
	C57.131618,291.618561 61.190487,296.713654 65.870117,301.151550 
	C67.945206,303.119446 71.246086,304.591461 74.095245,304.790558 
	C81.390579,305.300537 88.744644,304.970520 96.545616,304.969116 
	C107.767197,304.984528 118.519974,304.915192 129.268326,305.101532 
	C131.639374,305.142639 133.994705,306.089905 136.678635,306.809937 
	C107.312439,307.000000 77.624878,307.000000 47.515167,306.596344 
	C46.750816,305.865173 46.443069,305.299530 46.061478,305.244293 
	C26.171171,302.366699 12.533472,291.441833 4.505386,273.176544 
	C3.557799,271.020630 2.178932,269.054260 0.999995,267.000000 
	C1.000000,255.312439 1.000000,243.624878 1.000002,231.468658 
z"/>
<path fill="#095D89" opacity="1.000000" stroke="none" 
	d="
M229.418350,74.742630 
	C220.182312,66.626190 211.184113,58.277500 202.327652,49.781067 
	C189.149429,37.138573 176.109299,24.352110 162.926300,11.714643 
	C159.226273,8.167715 155.231430,4.928296 151.185913,1.273911 
	C159.687561,1.000000 168.375137,1.000000 177.531342,0.999998 
	C178.684631,1.662908 179.268661,2.727914 180.069031,2.928171 
	C191.341141,5.748497 201.399994,11.166790 209.483337,19.240303 
	C220.028717,29.772827 227.533249,42.338291 228.975769,57.663555 
	C229.499832,63.231140 229.487305,68.849236 229.418350,74.742630 
z"/>
<path fill="#000000" opacity="1.000000" stroke="none" 
	d="
M192.468658,307.000000 
	C192.796585,306.358765 193.509781,305.336639 194.403885,305.140900 
	C198.742065,304.191254 203.128738,303.463287 208.155899,302.338867 
	C215.224930,299.050049 221.636307,296.079163 228.391479,293.032898 
	C234.169998,288.344055 239.604721,283.730621 245.330276,278.945374 
	C249.448669,273.535339 253.276245,268.297089 257.397186,262.880676 
	C260.162262,256.819580 262.633942,250.936630 265.105621,245.053680 
	C266.150879,242.350082 267.196136,239.646484 268.620667,236.971436 
	C269.000000,260.263672 269.000000,283.527374 269.000000,307.000000 
	C243.646149,307.000000 218.291733,307.000000 192.468658,307.000000 
z"/>
<path fill="#044062" opacity="1.000000" stroke="none" 
	d="
M56.541931,1.000000 
	C61.782856,2.407212 66.808601,3.277776 71.306892,5.313709 
	C91.750458,14.566497 101.875076,30.671587 102.059547,53.529312 
	C102.037117,57.016045 102.002045,60.050819 101.958443,63.539215 
	C99.440666,63.131523 96.122505,63.012138 94.547035,61.294388 
	C78.394707,43.683426 62.466228,25.864874 46.695927,7.910451 
	C45.522709,6.574750 46.050125,3.745291 45.893471,1.305126 
	C49.361286,1.000000 52.722576,1.000000 56.541931,1.000000 
z"/>
<path fill="#000000" opacity="1.000000" stroke="none" 
	d="
M0.999995,267.468658 
	C2.178932,269.054260 3.557799,271.020630 4.505386,273.176544 
	C12.533472,291.441833 26.171171,302.366699 46.061478,305.244293 
	C46.443069,305.299530 46.750816,305.865173 47.046509,306.596344 
	C31.745094,307.000000 16.490187,307.000000 1.000000,307.000000 
	C1.000000,293.980042 1.000000,280.958679 0.999995,267.468658 
z"/>
<path fill="#000000" opacity="1.000000" stroke="none" 
	d="
M39.531342,1.000000 
	C39.074196,1.703273 38.250458,2.684535 37.207092,3.067607 
	C24.133804,7.867467 13.887661,15.981515 7.042423,28.653854 
	C5.168875,32.637077 3.456876,36.312126 1.372439,39.993587 
	C1.000000,27.073353 1.000000,14.146708 1.000000,1.000000 
	C13.686713,1.000000 26.374699,1.000000 39.531342,1.000000 
z"/>
<path fill="#064B72" opacity="1.000000" stroke="none" 
	d="
M264.834045,244.847763 
	C262.633942,250.936630 260.162262,256.819580 257.147614,262.651123 
	C251.859100,257.689240 247.284668,252.598465 242.336609,247.901260 
	C226.157440,232.542358 209.723511,217.450836 193.605606,202.028595 
	C165.702225,175.329529 137.988388,148.432434 110.106789,121.710472 
	C107.750557,119.452240 104.730354,117.886803 102.018623,115.999504 
	C102.020546,107.977203 102.022476,99.954910 102.033600,91.463661 
	C109.139847,97.207779 116.420212,103.225281 123.298088,109.672195 
	C140.874466,126.147217 158.282379,142.802124 175.735657,159.408218 
	C184.404343,167.656128 193.018646,175.961166 201.668137,184.229294 
	C217.046646,198.929688 232.447495,213.606735 247.808853,228.325012 
	C253.437469,233.717957 258.980438,239.200287 264.834045,244.847763 
z"/>
<path fill="#05466B" opacity="1.000000" stroke="none" 
	d="
M245.039459,279.117188 
	C239.604721,283.730621 234.169998,288.344055 228.251755,292.705505 
	C224.942673,288.598511 222.599319,284.244202 219.211075,280.971832 
	C201.057281,263.438721 182.622131,246.197327 164.324814,228.812378 
	C147.115005,212.460709 130.040115,195.965500 112.694183,179.760025 
	C109.668159,176.932938 105.594086,175.227661 102.004059,173.004272 
	C102.004471,161.313782 102.004883,149.623291 102.279007,137.650711 
	C105.023087,140.053787 107.350334,142.889282 109.987129,145.399658 
	C126.840042,161.444565 143.825592,177.350464 160.639847,193.435577 
	C174.935989,207.111801 189.005997,221.024200 203.277161,234.726807 
	C215.864380,246.812561 228.700104,258.642059 241.147812,270.868011 
	C243.182709,272.866669 243.778519,276.330536 245.039459,279.117188 
z"/>
<path fill="#064A6F" opacity="1.000000" stroke="none" 
	d="
M245.330292,278.945374 
	C243.778519,276.330536 243.182709,272.866669 241.147812,270.868011 
	C228.700104,258.642059 215.864380,246.812561 203.277161,234.726807 
	C189.005997,221.024200 174.935989,207.111801 160.639847,193.435577 
	C143.825592,177.350464 126.840042,161.444565 109.987129,145.399658 
	C107.350334,142.889282 105.023087,140.053787 102.280106,137.181732 
	C102.003777,135.280975 102.000053,133.567108 101.993561,131.424576 
	C101.996994,126.307816 102.003189,121.619728 102.014000,116.465569 
	C104.730354,117.886803 107.750557,119.452240 110.106789,121.710472 
	C137.988388,148.432434 165.702225,175.329529 193.605606,202.028595 
	C209.723511,217.450836 226.157440,232.542358 242.336609,247.901260 
	C247.284668,252.598465 251.859100,257.689240 256.854218,262.829285 
	C253.276245,268.297089 249.448669,273.535339 245.330292,278.945374 
z"/>
<path fill="#044367" opacity="1.000000" stroke="none" 
	d="
M102.003723,173.472229 
	C105.594086,175.227661 109.668159,176.932938 112.694183,179.760025 
	C130.040115,195.965500 147.115005,212.460709 164.324814,228.812378 
	C182.622131,246.197327 201.057281,263.438721 219.211075,280.971832 
	C222.599319,284.244202 224.942673,288.598511 227.907959,292.780884 
	C221.636307,296.079163 215.224930,299.050049 208.433136,302.076263 
	C209.016312,298.653503 207.653900,296.187866 205.100525,293.771973 
	C190.953400,280.386566 176.969620,266.828674 162.870743,253.391953 
	C144.677658,236.053360 126.451408,218.749313 108.162346,201.512207 
	C106.642830,200.080078 104.536293,199.270813 102.360023,198.091675 
	C102.009094,196.621155 102.000626,195.231125 101.990738,193.424774 
	C101.994011,186.652359 101.998703,180.296280 102.003723,173.472229 
z"/>
</svg>